<?xml version="1.0" standalone="no"?> <!DOCTYPE svg PUBLIC "-//W3C//DTD SVG 1.0//EN" "http://www.w3.org/TR/2001/REC-SVG-20010904/DTD/svg10.dtd" > <svg xmlns="http://www.w3.org/2000/svg" width="100%" height="100%">
<defs >
<font id="aglettericacondensedbold" horiz-adv-x="409" ><font-face
    font-family="AGLettericaCondensed"
    units-per-em="1000"
    panose-1="0 0 0 0 0 0 0 0 0 0"
    ascent="966"
    descent="-200"
    alphabetic="0" />
<missing-glyph horiz-adv-x="800" d="M50 0V800H750V0H50ZM700 50V750H100V50H700Z" />
<glyph unicode=" " glyph-name="space" horiz-adv-x="250" />
<glyph unicode="!" glyph-name="exclam" horiz-adv-x="333" d="M101 540V750H231V540V519Q231 444 225 367L210 194H125Q125 234 120 278T110 367Q101 454 101 540ZM232 0H102V132H232V0Z" />
<glyph unicode="&quot;" glyph-name="quotedbl" horiz-adv-x="333" d="M318 468H199V739H318V468ZM135 468H16V739H135V468Z" />
<glyph unicode="#" glyph-name="numbersign" horiz-adv-x="500" d="M445 331V233H359L330 0H245L273 233H201L172 0H88L116 233H31V331H129L140 423H56V521H151L178 738H261L235 521H308L334 738H420L393 521H469V423H381L370 331H445ZM296 423H224L213 331H284L296 423Z" />
<glyph unicode="$" glyph-name="dollar" horiz-adv-x="500" d="M278 287V85Q306 93 322 116T338 179Q338 214 318 246Q302 272 278 287ZM217 85V308Q101 385 73 433T44 554Q44 626 83 674Q128 729 214 740V803H282V740Q361 731 403 693T445 602Q445 592 447 567T449
539H333Q333 585 324 605Q312 631 278 640V441Q364 397 410 345Q465 283 465 210Q465 106 423 53T282 -15V-124H214V-18Q115 -10 72 57Q34 115 34 222H154Q154 155 160 136Q172 97 217 85ZM217 461V640Q191 636 178 616T164 565Q164 531 180 505Q187 493 217 461Z"
/>
<glyph unicode="%" glyph-name="percent" horiz-adv-x="833" d="M184 736Q282 736 316 680Q339 642 339 553Q339 462 317 426Q283 370 184 370Q88 370 54 426Q31 464 31 553Q31 643 53 680Q86 736 184 736ZM186 663Q147 663 135 633Q127 613 127 553Q127 491 134
473Q146 443 186 443Q225 443 236 473Q243 492 243 553Q243 614 236 633Q225 663 186 663ZM280 -15H209L545 750H615L280 -15ZM649 366Q747 366 781 310Q803 273 803 183Q803 93 781 56Q748 0 649 0Q553 0 519 56Q496 94 496 183Q496 273 518 310Q551 366 649 366ZM650
293Q610 293 599 263Q592 245 592 183Q592 122 599 103Q610 73 650 73Q689 73 700 103Q707 122 707 183Q707 244 700 263Q689 293 650 293Z" />
<glyph unicode="&amp;" glyph-name="ampersand" horiz-adv-x="667" d="M306 518Q331 537 345 557Q364 583 364 609Q364 635 350 651T314 668Q294 668 280 656T266 619Q266 596 279 569T306 518ZM363 425L457 262Q469 299 474 331T480 399H591Q591 332 575 268T525
147L615 -3H465L438 47Q400 11 359 -3T263 -18Q177 -18 120 47T63 208Q63 287 101 345Q132 392 205 444Q177 493 165 521Q146 567 146 606Q146 688 201 731Q248 768 319 768Q382 768 429 726T477 612Q477 553 447 506T363 425ZM385 136L264 343Q242 335 220 304Q193
266 193 227Q193 216 194 210Q201 164 225 132Q253 95 294 95Q318 95 341 106T385 136Z" />
<glyph unicode="&apos;" glyph-name="quotesingle" horiz-adv-x="250" d="M185 468H66V739H185V468Z" />
<glyph unicode="(" glyph-name="parenleft" horiz-adv-x="333" d="M198 768H279Q230 671 209 573Q184 454 184 263Q184 124 204 25T281 -198H198Q115 -56 85 41Q52 149 52 304Q52 437 86 550T198 768Z" />
<glyph unicode=")" glyph-name="parenright" horiz-adv-x="333" d="M135 -198H54Q103 -101 124 -3Q149 116 149 307Q149 446 129 545T52 768H135Q218 626 249 524T281 266Q281 133 247 20T135 -198Z" />
<glyph unicode="*" glyph-name="asterisk" horiz-adv-x="500" d="M382 461L316 413L262 490L253 505L241 486L187 412L121 459L176 535L187 549L167 555L79 583L103 659L192 631L210 625L209 645V738H289V645L288 627L309 634L395 663L422 585L332 558Q320 554
314 554L328 536L382 461Z" />
<glyph unicode="+" glyph-name="plus" horiz-adv-x="500" d="M195 304V492H305V304H475V194H305V0H195V194H26V304H195Z" />
<glyph unicode="," glyph-name="comma" horiz-adv-x="333" d="M101 -145V-101Q134 -97 152 -69T171 0H101V132H233V3Q233 -128 101 -145Z" />
<glyph unicode="-" glyph-name="hyphen" horiz-adv-x="333" d="M286 255H48V370H286V255Z" />
<glyph unicode="." glyph-name="period" horiz-adv-x="333" d="M233 0H101V132H233V0Z" />
<glyph unicode="/" glyph-name="slash" horiz-adv-x="278" d="M-11 -94L225 750H312L76 -94H-11Z" />
<glyph unicode="0" glyph-name="zero" horiz-adv-x="500" d="M188 538V201Q188 143 204 119T249 95Q280 95 296 118T313 201V538Q313 596 296 619T249 643Q219 643 205 622Q188 597 188 538ZM48 201V538Q48 653 102 705Q151 753 251 753Q351 753 399 706Q453 654
453 538V201Q453 87 399 34Q349 -15 250 -15Q151 -15 102 33Q48 86 48 201Z" />
<glyph unicode="1" glyph-name="one" horiz-adv-x="500" d="M213 0V520H44V620Q125 620 173 646Q230 677 250 750H353V0H213Z" />
<glyph unicode="2" glyph-name="two" horiz-adv-x="500" d="M442 0H32Q32 53 44 127Q51 167 81 217Q115 274 176 338L244 410Q283 453 295 474Q313 506 313 554Q313 603 296 623T246 643Q222 643 205 635T181 606Q174 590 172 570T170 527V500H39V521Q39 643 89
696Q143 753 252 753Q342 753 397 701T453 559Q453 497 432 449T364 354L254 240Q224 209 207 183Q181 143 181 110H442V0Z" />
<glyph unicode="3" glyph-name="three" horiz-adv-x="500" d="M171 346V456H182Q211 456 226 457T259 467Q285 479 295 506Q302 525 302 559Q302 643 235 643Q208 643 191 632Q168 617 168 584V531H37Q37 640 81 694Q129 753 234 753Q337 753 389 701Q438 652
438 560Q438 503 417 463Q391 413 340 405Q392 397 422 351T453 221Q453 107 402 48Q348 -15 235 -15Q108 -15 59 65Q28 116 28 205V249H159V217Q159 160 170 135Q188 95 238 95Q298 95 309 161Q313 185 313 237Q313 263 311 283T297 316Q281 335 248 340T171 346Z"
/>
<glyph unicode="4" glyph-name="four" horiz-adv-x="500" d="M126 262H266V566L126 262ZM250 738H406V262H470V152H406V0H266V152H23V262L250 738Z" />
<glyph unicode="5" glyph-name="five" horiz-adv-x="500" d="M168 345H44L63 738H424V628H171L162 468Q187 492 211 501T271 510Q381 510 426 425Q458 364 458 251Q458 116 414 54Q365 -15 251 -15Q127 -15 80 45Q37 100 37 236H168Q168 167 174 146Q188 95 238
95Q303 95 314 170Q318 196 318 252Q318 337 299 368T238 400Q211 400 191 385T168 345Z" />
<glyph unicode="6" glyph-name="six" horiz-adv-x="500" d="M182 260Q182 150 196 123T245 95H254Q295 95 309 128Q319 152 319 216V260V284Q319 335 309 359Q294 395 251 395Q215 395 199 369T182 260ZM42 270V450Q42 623 95 691Q143 753 259 753Q347 753 393
714Q444 671 444 584H314Q314 611 306 623Q293 643 254 643Q208 643 191 601Q180 574 180 522V503V455Q205 481 219 489Q247 505 290 505Q378 505 418 447T459 270Q459 121 417 57Q370 -15 252 -15Q134 -15 85 61Q42 128 42 270Z" />
<glyph unicode="7" glyph-name="seven" horiz-adv-x="500" d="M32 628V738H454V637Q407 554 373 463T315 281T283 138Q270 65 270 0H126Q126 72 144 156Q159 226 188 309Q202 348 245 458Q261 497 281 539Q306 591 331 628H32Z" />
<glyph unicode="8" glyph-name="eight" horiz-adv-x="500" d="M181 208Q181 149 190 128Q204 95 252 95Q297 95 311 134Q320 159 320 220Q320 289 311 313Q296 352 250 352Q212 352 197 329T181 208ZM251 452Q290 452 304 488Q313 512 313 559Q313 601 297 622T253
643Q215 643 202 618T188 549Q188 492 204 472T251 452ZM146 406Q99 431 80 465Q58 505 58 580Q58 649 101 696Q153 753 252 753Q353 753 398 705T443 560Q443 497 425 464Q404 426 348 403Q410 389 435 344T460 213Q460 94 405 37Q354 -15 255 -15Q140 -15 91
40T41 212Q41 294 64 337T146 406Z" />
<glyph unicode="9" glyph-name="nine" horiz-adv-x="500" d="M319 478Q319 588 305 615T256 643H247Q206 643 192 610Q182 586 182 522V478V454Q182 403 192 379Q207 343 250 343Q286 343 302 369T319 478ZM459 468V288Q459 114 407 47Q359 -15 243 -15Q155 -15
109 24Q58 67 58 154H188Q188 128 197 115Q211 95 249 95Q294 95 311 136Q322 162 322 214V235V283Q297 257 283 249Q255 233 212 233Q124 233 83 292T42 468Q42 616 85 681Q133 753 250 753Q369 753 417 677Q459 611 459 468Z" />
<glyph unicode=":" glyph-name="colon" horiz-adv-x="278" d="M205 424H73V556H205V424ZM205 0H73V132H205V0Z" />
<glyph unicode=";" glyph-name="semicolon" horiz-adv-x="278" d="M73 -145V-101Q106 -97 124 -69T143 0H73V132H205V3Q205 -128 73 -145ZM205 424H73V556H205V424Z" />
<glyph unicode="&lt;" glyph-name="less" horiz-adv-x="500" d="M162 249L459 87V-24L42 201V300L459 527V416L162 249Z" />
<glyph unicode="=" glyph-name="equal" horiz-adv-x="500" d="M475 401V291H26V401H475ZM475 206V96H26V206H475Z" />
<glyph unicode="&gt;" glyph-name="greater" horiz-adv-x="500" d="M42 87L339 249L42 416V527L459 300V201L42 -24V87Z" />
<glyph unicode="?" glyph-name="question" horiz-adv-x="500" d="M176 553H52Q52 768 247 768Q336 768 388 718T440 582Q440 528 425 493T371 409L302 333Q282 308 274 275T266 201H149Q149 235 152 270Q152 330 188 380Q237 436 263 471Q279 493 288 511Q302
540 302 583Q302 664 245 664Q203 664 189 641Q180 624 179 600T176 553ZM147 130H274V0H147V130Z" />
<glyph unicode="@" glyph-name="at" horiz-adv-x="833" d="M654 148H750Q693 70 614 26T441 -18Q273 -18 156 95T38 378Q38 545 152 656T435 768Q507 768 567 749T680 684T764 580T795 452Q795 387 777 335T715 239Q684 207 630 179T535 151Q518 151 505 164T491
201Q491 206 493 216Q426 155 368 155Q290 155 245 207T199 339Q199 435 256 504Q317 577 411 577Q452 577 484 563T538 516L549 569H647L594 261Q591 248 597 243T614 240Q627 244 646 262T682 304Q693 320 705 356T717 423Q717 549 639 621T432 694Q294 694 205
605T116 378Q116 234 210 145T449 56Q506 56 560 82Q606 104 654 148ZM504 370Q504 420 487 449Q466 484 422 484Q376 484 343 446T309 357Q309 308 328 281T380 248Q385 247 395 247Q440 247 472 289Q500 325 504 370Z" />
<glyph unicode="A" glyph-name="A" horiz-adv-x="556" d="M159 0H9L188 750H377L547 0H397L360 190H196L159 0ZM260 513L218 300H338L300 513Q296 533 294 551T286 617L281 667L274 617Q270 582 268 560T260 513Z" />
<glyph unicode="B" glyph-name="B" horiz-adv-x="556" d="M205 110H235H268Q285 110 295 111T319 118Q345 130 355 162Q362 184 362 222Q362 287 344 310Q323 337 259 337H205V110ZM205 447H231H244Q278 447 292 450Q318 456 331 473Q339 485 342 505T346 554Q346
600 332 618Q315 640 270 640H205V447ZM312 0H65V750H291Q348 750 378 742Q423 730 450 695Q471 668 479 636T487 560Q487 502 471 468Q450 422 397 403Q454 394 480 349T506 227Q506 202 504 179T496 135Q473 63 431 32T312 0Z" />
<glyph unicode="C" glyph-name="C" horiz-adv-x="556" d="M371 267H512L509 224Q509 113 463 52Q410 -18 300 -18Q191 -18 135 27Q85 67 68 149Q55 211 55 328V435Q55 605 93 673Q146 768 300 768Q395 768 450 718T505 574Q508 545 508 517H370Q359 603 359 604Q345
655 300 655Q237 655 214 597Q199 560 199 491V466V258Q199 189 213 154Q237 95 300 95Q349 95 364 163Q371 195 371 267Z" />
<glyph unicode="D" glyph-name="D" horiz-adv-x="611" d="M212 110H273Q362 110 386 170Q406 219 406 393Q406 533 387 583Q365 640 304 640H212V110ZM331 0H72V750H364Q399 750 433 734Q480 712 509 665Q531 629 540 566T550 406Q550 302 546 255Q539 169 517
117Q490 52 435 20Q419 11 396 6T331 0Z" />
<glyph unicode="E" glyph-name="E" horiz-adv-x="500" d="M458 0H64V750H458V640H204V451H438V341H204V110H458V0Z" />
<glyph unicode="F" glyph-name="F" horiz-adv-x="500" d="M213 0H73V750H470V640H213V450H454V340H213V0Z" />
<glyph unicode="G" glyph-name="G" horiz-adv-x="611" d="M55 328V435Q55 605 93 673Q146 768 300 768Q397 768 450 736Q512 698 535 606Q538 592 540 571T542 515H402Q402 585 387 613Q365 655 300 655Q237 655 214 597Q199 560 199 491V466V258Q199 189 213
154Q237 95 300 95Q356 95 381 151Q403 200 403 293H306V403H539V0H434V86Q413 32 375 5Q342 -18 300 -18Q191 -18 135 27Q85 67 68 149Q55 211 55 328Z" />
<glyph unicode="H" glyph-name="H" horiz-adv-x="611" d="M208 0H68V750H208V453H404V750H544V0H404V343H208V0Z" />
<glyph unicode="I" glyph-name="I" horiz-adv-x="278" d="M209 0H69V750H209V0Z" />
<glyph unicode="J" glyph-name="J" horiz-adv-x="444" d="M8 238H148V145Q148 122 158 109T193 95Q226 95 237 119Q244 135 244 174V750H384V203V183Q384 130 379 105Q370 60 343 31T268 -10Q234 -18 172 -18Q129 -18 96 -2Q55 18 28 59Q17 77 13 127T8 238Z" />
<glyph unicode="K" glyph-name="K" horiz-adv-x="556" d="M208 0H68V750H208V417Q226 460 250 508Q258 524 298 597L380 750H538L353 428L547 0H389L257 296L208 215V0Z" />
<glyph unicode="L" glyph-name="L" horiz-adv-x="500" d="M468 0H68V750H208V110H468V0Z" />
<glyph unicode="M" glyph-name="M" horiz-adv-x="778" d="M207 236V0H67V750H290L365 402Q381 326 391 229Q396 277 401 320T415 402L490 750H712V0H572V236Q572 319 575 403Q584 654 584 683L432 0H347L200 683H195Q195 600 198 516Q207 265 207 236Z" />
<glyph unicode="N" glyph-name="N" horiz-adv-x="611" d="M403 603V750H543V0H397L288 267Q237 389 188 565V552Q188 526 192 482Q201 382 201 351Q201 318 206 214Q208 172 208 141V0H68V750H213L322 477Q374 352 422 179L410 392Q410 430 408 473Q403 581 403 603Z" />
<glyph unicode="O" glyph-name="O" horiz-adv-x="611" d="M61 328V435Q61 605 99 673Q152 768 306 768Q459 768 512 673Q551 604 551 435V328Q551 208 539 150Q522 66 473 27Q417 -18 306 -18Q197 -18 141 27Q91 67 74 149Q61 211 61 328ZM205 466V258Q205 189
219 154Q243 95 306 95Q372 95 394 155Q407 190 407 270V462Q407 544 396 581Q374 655 306 655Q243 655 220 597Q205 560 205 491V466Z" />
<glyph unicode="P" glyph-name="P" horiz-adv-x="556" d="M208 640V424H283Q333 424 357 448Q385 476 385 541Q385 603 361 621T272 640H208ZM208 0H68V750H354Q447 750 492 683Q529 628 529 537Q529 483 514 440Q496 388 459 359Q429 335 387 325T302 314H208V0Z" />
<glyph unicode="Q" glyph-name="Q" horiz-adv-x="611" d="M587 -5L516 -71L438 5Q392 -18 306 -18Q197 -18 141 27Q91 67 74 149Q61 211 61 328V435Q61 605 99 673Q152 768 306 768Q459 768 512 673Q551 604 551 435V328Q551 241 543 177T510 72L587 -5ZM315 126L391
190L398 183Q402 200 404 218T406 258L407 466V491Q407 562 393 597Q370 655 306 655Q243 655 220 597Q205 560 205 491V466V258Q205 189 219 154Q243 95 306 95Q325 95 342 100L315 126Z" />
<glyph unicode="R" glyph-name="R" horiz-adv-x="611" d="M231 323H206V0H66V750H331Q431 750 483 712Q544 668 544 570Q544 497 522 454Q494 398 429 389Q488 380 514 342Q537 309 537 251V220Q537 141 542 84T567 14V0H413Q402 31 400 80T398 169V190Q398 240
392 263Q381 304 354 312T307 321T246 323H231ZM206 640V433H316Q353 433 375 459T398 541Q398 600 374 622Q355 640 310 640H206Z" />
<glyph unicode="S" glyph-name="S" horiz-adv-x="556" d="M489 522H354Q354 586 342 614Q324 655 272 655Q234 655 215 639T195 585Q195 547 218 521Q232 505 275 478T362 420Q420 379 445 355Q479 321 493 285T508 198Q508 94 445 38T277 -18Q156 -18 100 45Q49
102 49 210V265H189V221Q189 161 208 128T277 95Q364 95 364 183Q364 215 350 238T311 280T221 342Q125 405 87 455Q51 508 51 570Q51 768 271 768Q384 768 438 710Q489 655 489 522Z" />
<glyph unicode="T" glyph-name="T" horiz-adv-x="500" d="M17 640V750H484V640H321V0H181V640H17Z" />
<glyph unicode="U" glyph-name="U" horiz-adv-x="611" d="M404 239V750H544V227Q544 97 495 42Q441 -18 307 -18Q172 -18 118 42Q68 97 68 227V750H208V239Q208 151 233 123T308 95Q369 95 390 140Q404 170 404 239Z" />
<glyph unicode="V" glyph-name="V" horiz-adv-x="556" d="M307 269L386 750H536L374 0H187L21 750H171L259 269Q264 241 268 212T276 141Q277 126 279 105T282 79Q283 88 286 109T291 151T297 204T307 269Z" />
<glyph unicode="W" glyph-name="W" horiz-adv-x="833" d="M475 750L550 362Q559 312 570 202Q572 182 581 95L588 149Q588 191 590 212T609 341L665 750H810L671 0H503L447 296Q438 346 431 410T417 535Q401 415 385 296L335 0H167L24 750H169L232 341Q242 277
247 233T253 149L257 95Q274 228 291 362L359 750H475Z" />
<glyph unicode="X" glyph-name="X" horiz-adv-x="556" d="M359 380L545 0H385L305 183Q285 230 276 278Q271 248 263 224Q259 212 226 138L164 0H11L195 380L18 750H175L251 580Q264 550 269 534Q278 507 278 486Q280 523 303 573Q315 598 327 623L381 750H539L359 380Z" />
<glyph unicode="Y" glyph-name="Y" horiz-adv-x="556" d="M165 750L244 553Q256 522 264 496T277 438Q285 475 292 497Q295 505 325 580L392 750H545L347 319V0H207V319L12 750H165Z" />
<glyph unicode="Z" glyph-name="Z" horiz-adv-x="500" d="M33 0V112L274 577Q285 599 292 613T313 643Q305 642 289 641T259 640H49V750H459V638L218 173Q207 151 201 140Q192 123 179 107Q200 110 220 110H233H468V0H33Z" />
<glyph unicode="[" glyph-name="bracketleft" horiz-adv-x="333" d="M280 -94H81V750H280V674H191V-18H280V-94Z" />
<glyph unicode="\" glyph-name="backslash" horiz-adv-x="250" d="M-89 750H17L340 0H234L-89 750Z" />
<glyph unicode="]" glyph-name="bracketright" horiz-adv-x="333" d="M53 750H252V-94H53V-18H142V674H53V750Z" />
<glyph unicode="^" glyph-name="asciicircum" horiz-adv-x="500" d="M114 326L10 373L190 750H310L490 373L386 326L250 605L114 326Z" />
<glyph unicode="_" glyph-name="underscore" horiz-adv-x="500" d="M500 -119H0V-61H500V-119Z" />
<glyph unicode="`" glyph-name="grave" horiz-adv-x="333" d="M1 775H156L250 629H149L1 775Z" />
<glyph unicode="a" glyph-name="a" horiz-adv-x="500" d="M440 0H317Q312 9 310 20T308 43Q309 53 309 58Q259 -15 193 -15Q115 -15 79 25T42 154Q42 239 100 287Q133 314 235 356Q270 371 286 387T302 428Q302 438 299 453T282 473T238 479Q197 479 184 459T170
397H46Q46 487 83 528Q129 579 243 579Q361 579 402 524Q429 488 429 412V79Q429 61 432 41T440 0ZM299 236V297Q246 261 194 225Q181 214 177 197T172 157Q172 122 185 104T233 85Q273 85 289 122Q300 148 300 198Q300 210 300 219T299 236Z" />
<glyph unicode="b" glyph-name="b" horiz-adv-x="500" d="M194 354V185Q194 85 257 85Q285 85 299 112T314 182V370Q314 428 308 445Q296 479 255 479Q215 479 202 434Q194 407 194 354ZM64 0V750H194V570L191 507Q212 547 239 563T309 579Q377 579 408 538Q444
491 444 379V175Q444 93 418 46Q384 -15 309 -15Q267 -15 240 1T190 60L188 0H64Z" />
<glyph unicode="c" glyph-name="c" horiz-adv-x="444" d="M402 368H272V431Q272 479 227 479Q194 479 184 442Q178 419 178 353V220Q178 137 187 113T227 85Q254 85 263 109Q268 122 272 168V220H402V168Q402 76 361 31T224 -15Q136 -15 92 35T48 196V379Q48 489
99 538Q142 579 224 579Q316 579 362 528Q402 484 402 413V368Z" />
<glyph unicode="d" glyph-name="d" horiz-adv-x="500" d="M303 185V354Q303 409 296 433Q283 479 242 479Q202 479 190 446Q183 426 183 370V182Q183 138 197 112T240 85Q303 85 303 185ZM303 0V60Q283 19 256 2T189 -15Q114 -15 80 46Q53 94 53 175V379Q53 490
89 537Q121 579 189 579Q233 579 259 564T305 507Q304 519 304 534T303 557V750H433V0H303Z" />
<glyph unicode="e" glyph-name="e" horiz-adv-x="500" d="M52 222V370Q52 471 100 525T242 579Q368 579 410 513Q442 463 442 331V255H182V173Q182 121 201 101Q216 85 250 85Q285 85 297 109T310 191H440Q440 92 400 41Q356 -15 260 -15Q148 -15 100 40T52 222ZM182
355H312V404Q312 447 298 463T244 479Q201 479 189 448Q182 430 182 378V355Z" />
<glyph unicode="f" glyph-name="f" horiz-adv-x="278" d="M71 469H21V564H71V620Q71 695 102 722T208 750H257V646Q237 652 228 652Q201 652 201 630V564H257V469H201V0H71V469Z" />
<glyph unicode="g" glyph-name="g" horiz-adv-x="500" d="M303 354Q303 409 296 433Q283 479 242 479Q202 479 190 446Q183 426 183 370V182Q183 138 197 112T240 85Q303 85 303 185V354ZM59 -63H189Q189 -80 203 -88T244 -96Q282 -96 297 -69Q309 -48 309 -8V57L307
59Q288 20 260 3T188 -15Q112 -15 79 45Q53 92 53 174V378Q53 488 89 536Q121 579 188 579Q275 579 301 506L303 564H433V17Q433 -83 395 -130Q347 -190 223 -190Q150 -190 109 -163Q59 -130 59 -63Z" />
<glyph unicode="h" glyph-name="h" horiz-adv-x="500" d="M191 0H61V750H191V506Q217 550 254 567Q280 579 310 579Q369 579 404 544T440 435V0H310V386Q310 433 301 453Q289 479 255 479Q220 479 206 452T191 375V0Z" />
<glyph unicode="i" glyph-name="i" horiz-adv-x="278" d="M204 0H74V564H204V0ZM204 632H74V750H204V632Z" />
<glyph unicode="j" glyph-name="j" horiz-adv-x="278" d="M31 -190V-90Q58 -90 68 -85T79 -60V564H209V-3Q209 -14 209 -26T210 -51Q210 -114 196 -141T158 -180T73 -192Q63 -192 53 -192Q38 -190 31 -190ZM209 632H79V750H209V632Z" />
<glyph unicode="k" glyph-name="k" horiz-adv-x="444" d="M178 0H48V750H178V411L176 340L301 564H443L301 337L439 0H294L213 230L178 172V0Z" />
<glyph unicode="l" glyph-name="l" horiz-adv-x="278" d="M204 0H74V750H204V0Z" />
<glyph unicode="m" glyph-name="m" horiz-adv-x="778" d="M196 564V506Q217 548 255 566Q283 579 322 579Q365 579 397 563Q437 543 443 506Q482 579 574 579Q642 579 679 542Q712 509 712 459V0H582V381Q582 443 567 461T520 479Q481 479 468 453T454 371V0H324V388Q324
435 315 452Q301 479 260 479Q218 479 205 449Q196 428 196 371V0H66V564H196Z" />
<glyph unicode="n" glyph-name="n" horiz-adv-x="500" d="M191 564V506Q211 549 251 567Q277 579 310 579Q369 579 404 544T440 435V0H310V376Q310 423 301 443Q289 469 255 469Q220 469 206 442T191 365V0H61V564H191Z" />
<glyph unicode="o" glyph-name="o" horiz-adv-x="500" d="M183 372V184Q183 137 187 123Q198 85 252 85Q294 85 307 108Q317 126 317 184V372Q317 439 302 459T252 479Q206 479 192 446Q183 425 183 372ZM252 -15Q130 -15 89 50Q53 107 53 262Q53 381 61 430Q73
506 113 540Q158 579 252 579Q344 579 388 540Q427 506 439 430Q447 380 447 262Q447 105 413 50Q373 -15 252 -15Z" />
<glyph unicode="p" glyph-name="p" horiz-adv-x="500" d="M188 354V185Q188 85 251 85Q279 85 293 112T308 182V370Q308 428 302 445Q290 479 249 479Q209 479 196 434Q188 407 188 354ZM188 564V505Q207 544 234 561T303 579Q370 579 402 537Q438 489 438 377V173Q438
92 412 45Q379 -15 303 -15Q263 -15 235 1T184 58L182 -189H58V564H188Z" />
<glyph unicode="q" glyph-name="q" horiz-adv-x="500" d="M300 185V354Q300 409 293 433Q280 479 239 479Q199 479 187 446Q180 426 180 370V182Q180 138 194 112T237 85Q300 85 300 185ZM430 564V-188H300V60Q281 20 253 3T185 -15Q110 -15 76 46Q50 93 50 175V379Q50
489 86 537Q118 579 185 579Q228 579 254 564T298 507L300 564H430Z" />
<glyph unicode="r" glyph-name="r" horiz-adv-x="333" d="M185 564V464Q198 494 211 513T238 544Q257 560 274 567T319 574V420Q312 420 304 420T292 421Q244 421 217 400T190 326V0H60V564H185Z" />
<glyph unicode="s" glyph-name="s" horiz-adv-x="444" d="M28 186H158Q157 178 157 169T156 155Q156 108 177 93Q188 85 218 85Q243 85 258 98T274 134Q274 138 272 148Q272 164 259 178Q253 184 208 215L137 264Q84 301 59 339Q30 384 30 442Q30 507 80 543T224
579Q317 579 361 532T405 392H275Q275 440 262 459T215 479Q191 479 176 468T160 433Q160 411 175 395Q184 385 209 368L315 296Q343 280 370 248Q401 211 403 192T405 163T406 147Q406 74 367 34Q319 -15 211 -15Q142 -15 95 16Q27 61 27 158Q27 176 28 186Z"
/>
<glyph unicode="t" glyph-name="t" horiz-adv-x="278" d="M252 100V-2Q228 -4 213 -5T186 -7Q133 -7 104 11Q67 34 67 87V469H14V564H66V719H197V564H252V469H197V119Q198 108 209 104T234 99Q247 99 252 100Z" />
<glyph unicode="u" glyph-name="u" horiz-adv-x="500" d="M307 0V84Q274 -15 184 -15Q111 -15 85 20T58 132V564H188V178Q188 149 190 134T201 103Q218 85 241 85Q281 85 294 125Q301 147 301 198V564H431V0H307Z" />
<glyph unicode="v" glyph-name="v" horiz-adv-x="444" d="M142 0L10 564H150L205 248Q212 215 217 160T223 81Q227 138 229 155Q235 209 243 248L299 564H434L304 0H142Z" />
<glyph unicode="w" glyph-name="w" horiz-adv-x="667" d="M381 564L444 218Q449 188 453 157T457 97Q459 116 464 163T471 222L514 564H645L531 0H389L346 228Q337 273 333 304T329 370H325Q325 342 322 308T312 236L272 0H127L11 564H148L194 220Q197 201 201
153T205 95Q207 132 209 150T220 216L274 564H381Z" />
<glyph unicode="x" glyph-name="x" horiz-adv-x="444" d="M157 288L15 564H168L211 462Q216 445 218 437Q224 416 225 411L243 464L289 564H433L292 291L436 0H290L251 91Q240 116 234 134T225 174Q216 133 194 84L157 0H8L157 288Z" />
<glyph unicode="y" glyph-name="y" horiz-adv-x="444" d="M5 564H142L199 265Q201 254 207 208T218 115Q219 149 227 193T240 261L297 564H429L292 -8Q263 -120 249 -143Q217 -195 136 -195Q114 -195 76 -190V-89Q97 -91 110 -91Q130 -91 139 -87Q153 -80 153
-64Q153 -50 150 -32T141 8L5 564Z" />
<glyph unicode="z" glyph-name="z" horiz-adv-x="389" d="M367 471L161 100H367V0H23V102L221 464H27V564H367V471Z" />
<glyph unicode="{" glyph-name="braceleft" horiz-adv-x="274" d="M43 436V620Q43 687 71 718T166 750H240Q196 739 181 712T165 638V454Q165 397 150 371Q131 339 83 328Q131 320 150 279Q165 247 165 191V19Q165 -24 179 -48Q197 -79 240 -90L175 -92Q98 -92
71 -58T43 56V218Q43 264 28 287Q10 314 -32 325Q8 332 27 365Q43 393 43 436Z" />
<glyph unicode="|" glyph-name="bar" horiz-adv-x="250" d="M75 0V750H175V0H75Z" />
<glyph unicode="}" glyph-name="braceright" horiz-adv-x="274" d="M231 618V435Q231 390 246 364Q265 332 306 326Q261 319 244 289Q231 265 231 216V54Q231 -26 207 -57Q178 -94 102 -94H34Q77 -83 93 -56T109 18V189Q109 248 122 274Q139 309 191 324Q143 336
126 366T109 452V637Q109 684 92 711T34 747L102 750Q173 750 202 720T231 618Z" />
<glyph unicode="~" glyph-name="asciitilde" horiz-adv-x="500" d="M418 359L475 286Q440 225 424 207Q390 169 346 169Q313 169 243 202T160 235Q133 235 113 207Q108 200 83 153L26 227Q53 282 78 310Q115 351 159 351Q194 351 261 318T346 285Q365 285 380
300Q386 306 418 359Z" />
<glyph unicode="&#x80;" glyph-name="c128" horiz-adv-x="703" d="M505 297Q505 327 484 344T432 361Q403 361 374 352T321 328V0H181V640H17V750H484V640H321V448Q364 468 393 476Q433 487 479 487Q553 487 599 439T645 308V203Q645 93 595 38T433 -18H413V95H434Q472
95 490 119Q505 139 505 174V297Z" />
</font>
</defs>
</svg>
